<?xml version="1.0" encoding="utf-8"?>
<!-- Svg Vector Icons : http://www.onlinewebfonts.com/icon -->
<!DOCTYPE svg PUBLIC "-//W3C//DTD SVG 1.1//EN" "http://www.w3.org/Graphics/SVG/1.1/DTD/svg11.dtd">
<svg version="1.1" xmlns="http://www.w3.org/2000/svg" xmlns:xlink="http://www.w3.org/1999/xlink" x="0px" y="0px" viewBox="0 0 1000 1000" enable-background="new 0 0 1000 1000" xml:space="preserve">
<metadata> Svg Vector Icons : http://www.onlinewebfonts.com/icon </metadata>
<g><path d="M493.9,817.9h372c0,0,124.1,7.4,124.1-121.5V146.4c0,0,4.4-121.2-123.4-121.2H131.8c0,0-120.2,1.3-121.5,122.5v529.6c0,0-11.8,136.6,122.1,140.8h82.7l39.6,156.8L493.9,817.9L493.9,817.9z M125.8,760.4c-76.1-10.6-61.3-91.9-61.3-91.9V147.7c1.7-57.7,61.3-61.3,61.3-61.3s712.5-4.1,739.3,0.5c39.9-0.6,60,36,59.8,59c-1.1,13.3,5.2,513.5,3.2,553.1c-5.1,72.9-68.2,61.3-67.2,61.3H493.3L283,902.9l-34.7-142.5H125.8L125.8,760.4z M218.7,421.8c0,35.7,29.6,64.5,66.1,64.5c36.5,0,66.1-28.9,66.1-64.5c0-35.7-29.6-64.5-66.1-64.5C248.2,357.3,218.7,386.2,218.7,421.8L218.7,421.8z M645.5,421.8c0,35.7,29.6,64.5,66.1,64.5s66.1-28.9,66.1-64.5l0,0c0-35.7-29.6-64.5-66.1-64.5S645.5,386.2,645.5,421.8L645.5,421.8L645.5,421.8z M434,421.8c0,35.7,29.6,64.5,66.1,64.5c36.5,0,66.1-28.9,66.1-64.5l0,0c0-35.7-29.6-64.5-66.1-64.5C463.6,357.3,434,386.2,434,421.8L434,421.8z"/></g>
</svg>