<?xml version="1.0" encoding="utf-8"?>
<!-- Svg Vector Icons : http://www.onlinewebfonts.com/icon -->
<!DOCTYPE svg PUBLIC "-//W3C//DTD SVG 1.1//EN" "http://www.w3.org/Graphics/SVG/1.1/DTD/svg11.dtd">
<svg version="1.1" xmlns="http://www.w3.org/2000/svg" xmlns:xlink="http://www.w3.org/1999/xlink" x="0px" y="0px" viewBox="0 0 1000 1000" enable-background="new 0 0 1000 1000" xml:space="preserve">
<metadata> Svg Vector Icons : http://www.onlinewebfonts.com/icon </metadata>
<g><path d="M867.5,457.9L500,896.4L132.5,456.1c-43.9-61.1-61.3-102.3-61.3-158.8c0-105.3,75.2-200.1,183.7-201c89.3-0.7,190.5,90.5,245,159.2c53-66.3,155.7-159.2,245-159.2c105.7,0,183.8,95.7,183.8,201C928.8,353.8,915.1,398.1,867.5,457.9L867.5,457.9z M745,38.9c-102.1,0-179.3,59.9-245,122.5C437.4,95,357.1,38.9,255,38.9c-143.8,0-245,123.6-245,258.4c0,72.3,29.6,124.4,62,173.3l380.8,456.5c42.7,45.2,50.8,45.2,93.5,0L928,470.6c38.2-48.9,62-101,62-173.3C990,162.5,888.8,38.9,745,38.9L745,38.9z"/></g>
</svg>